<svg width="699" height="118" viewBox="0 0 699 118" fill="none" xmlns="http://www.w3.org/2000/svg">
<path d="M11.9091 24.1818H0.272728V12.5455H11.9091V24.1818ZM11.9091 24.1818H23.5455V35.8182H11.9091V24.1818ZM23.5455 35.8182H35.1818V47.4545H23.5455V35.8182ZM11.9091 70.7273H23.5455V82.3636H11.9091V70.7273ZM23.5455 59.0909H35.1818V70.7273H23.5455V59.0909ZM35.1818 47.4545H46.8182V59.0909H35.1818V47.4545ZM0.272728 82.3636H11.9091V94H0.272728V82.3636ZM151.636 24.1818H163.273V35.8182H174.909V47.4545H163.273V70.7273H174.909V82.3636H163.273V117.273H151.636V24.1818ZM174.909 24.1818H198.182V35.8182H174.909V24.1818ZM198.182 35.8182H209.818V82.3636H198.182V35.8182ZM174.909 82.3636H198.182V94H174.909V82.3636ZM256.409 24.1818V35.8182H268.045V47.4545H256.409V82.3636H279.682V94H233.136V82.3636H244.773V35.8182H233.136V24.1818H256.409ZM291.318 24.1818V35.8182H268.045V24.1818H291.318ZM326.273 24.1818H361.182V35.8182H326.273V24.1818ZM361.182 35.8182H372.818V82.3636H361.182V35.8182ZM314.636 35.8182H326.273V82.3636H314.636V35.8182ZM326.273 82.3636H361.182V94H326.273V82.3636ZM407.773 35.8182H396.136V24.1818H407.773V12.5455H419.409V24.1818H454.318V35.8182H419.409V82.3636H442.682V94H396.136V82.3636H407.773V35.8182ZM419.409 0.909088H454.318V12.5455H419.409V0.909088ZM500.909 35.8182H477.636V24.1818H512.545V82.3636H535.818V94H477.636V82.3636H500.909V35.8182ZM500.909 0.909088H512.545V12.5455H500.909V0.909088ZM582.409 12.5455H559.136V0.909088H594.045V82.3636H617.318V94H559.136V82.3636H582.409V12.5455ZM652.273 24.1818H687.182V35.8182H652.273V24.1818ZM640.636 35.8182H652.273V47.4545H687.182V35.8182H698.818V59.0909H652.273V82.3636H640.636V35.8182ZM652.273 82.3636H687.182V94H652.273V82.3636ZM687.182 70.7273H698.818V82.3636H687.182V70.7273Z" fill="black"/>
</svg>
