<svg width="595" height="192" viewBox="0 0 595 192" fill="none" xmlns="http://www.w3.org/2000/svg">
<rect width="595" height="192" rx="20" fill="#FFF9C4"/>
<path d="M78.625 86.625V21H125.5V30.375H134.875V39.75H144.25V67.875H134.875V77.25H125.5V86.625H78.625ZM97.375 77.25H116.125V67.875H125.5V39.75H116.125V30.375H97.375V77.25ZM179.5 49.125H188.875V58.5H179.5V86.625H160.75V39.75H179.5V49.125ZM217 39.75V49.125H188.875V39.75H217ZM233.5 86.625V77.25H224.125V67.875H233.5V58.5H271V49.125H233.5V39.75H280.375V49.125H289.75V86.625H233.5ZM242.875 77.25H271V67.875H242.875V77.25ZM306.25 96V86.625H343.75V77.25H306.25V67.875H296.875V49.125H306.25V39.75H362.5V86.625H353.125V96H306.25ZM315.625 67.875H343.75V49.125H315.625V67.875ZM379 86.625V77.25H369.625V49.125H379V39.75H425.875V49.125H435.25V77.25H425.875V86.625H379ZM388.375 77.25H416.5V49.125H388.375V77.25ZM442.375 86.625V39.75H498.625V49.125H508V86.625H489.25V49.125H461.125V86.625H442.375ZM42.25 161.625V96H89.125V105.375H98.5V114.75H107.875V142.875H98.5V152.25H89.125V161.625H42.25ZM61 152.25H79.75V142.875H89.125V114.75H79.75V105.375H61V152.25ZM124.375 161.625V152.25H115V114.75H133.75V152.25H161.875V114.75H180.625V161.625H124.375ZM187.75 161.625V114.75H244V124.125H253.375V161.625H234.625V124.125H206.5V161.625H187.75ZM269.875 171V161.625H307.375V152.25H269.875V142.875H260.5V124.125H269.875V114.75H326.125V161.625H316.75V171H269.875ZM279.25 142.875H307.375V124.125H279.25V142.875ZM342.625 161.625V152.25H333.25V124.125H342.625V114.75H389.5V124.125H398.875V142.875H352V152.25H389.5V161.625H342.625ZM352 133.5H380.125V124.125H352V133.5ZM415.375 161.625V152.25H406V124.125H415.375V114.75H462.25V124.125H471.625V152.25H462.25V161.625H415.375ZM424.75 152.25H452.875V124.125H424.75V152.25ZM478.75 161.625V114.75H535V124.125H544.375V161.625H525.625V124.125H497.5V161.625H478.75Z" fill="#AFB42B"/>
</svg>
