<svg width="169" height="80" viewBox="0 0 169 80" fill="none" xmlns="http://www.w3.org/2000/svg">
<path d="M46.7828 30H39.2828V17.1875H28.2086V30H20.7086V0.917969H28.2086V11.5625H39.2828V0.917969H46.7828V30ZM75.0555 19.043C75.0555 22.6497 74.0008 25.4948 71.8914 27.5781C69.7951 29.6484 66.8458 30.6836 63.0438 30.6836C59.2417 30.6836 56.2859 29.6484 54.1766 27.5781C52.0802 25.4948 51.032 22.6497 51.032 19.043C51.032 15.4102 52.0867 12.5586 54.1961 10.4883C56.3185 8.41797 59.2677 7.38281 63.0438 7.38281C66.8719 7.38281 69.8276 8.42448 71.9109 10.5078C74.0073 12.5911 75.0555 15.4362 75.0555 19.043ZM66.4031 24.375C66.8589 23.8151 67.1974 23.1445 67.4188 22.3633C67.6531 21.569 67.7703 20.4753 67.7703 19.082C67.7703 17.793 67.6531 16.7122 67.4188 15.8398C67.1844 14.9674 66.8589 14.2708 66.4422 13.75C66.0255 13.2161 65.5242 12.8385 64.9383 12.6172C64.3523 12.3958 63.7208 12.2852 63.0438 12.2852C62.3667 12.2852 61.7612 12.3763 61.2273 12.5586C60.7065 12.7409 60.2052 13.1055 59.7234 13.6523C59.2938 14.1602 58.9487 14.8568 58.6883 15.7422C58.4409 16.6276 58.3172 17.7409 58.3172 19.082C58.3172 20.2799 58.4279 21.3216 58.6492 22.207C58.8706 23.0794 59.1961 23.7826 59.6258 24.3164C60.0424 24.8242 60.5372 25.1953 61.1102 25.4297C61.6961 25.6641 62.3602 25.7812 63.1023 25.7812C63.7404 25.7812 64.3458 25.6771 64.9188 25.4688C65.5047 25.2474 65.9995 24.8828 66.4031 24.375ZM100.75 30H93.7188V27.5781C92.4167 28.5677 91.2253 29.3229 90.1445 29.8438C89.0638 30.3516 87.7747 30.6055 86.2773 30.6055C83.8555 30.6055 81.987 29.9089 80.6719 28.5156C79.3698 27.1224 78.7188 25.0651 78.7188 22.3438V8.06641H85.7891V18.9453C85.7891 20.0521 85.8216 20.9766 85.8867 21.7188C85.9648 22.4479 86.1341 23.0534 86.3945 23.5352C86.6419 24.0169 87.013 24.3685 87.5078 24.5898C88.0156 24.8112 88.7188 24.9219 89.6172 24.9219C90.2161 24.9219 90.8802 24.8112 91.6094 24.5898C92.3385 24.3685 93.0417 24.043 93.7188 23.6133V8.06641H100.75V30ZM125.273 23.0469C125.273 25.3125 124.257 27.1419 122.226 28.5352C120.195 29.9154 117.415 30.6055 113.886 30.6055C111.933 30.6055 110.162 30.4232 108.573 30.0586C106.985 29.694 105.709 29.2904 104.745 28.8477V23.0664H105.39C105.741 23.3138 106.145 23.5872 106.601 23.8867C107.07 24.1732 107.727 24.4857 108.573 24.8242C109.303 25.1237 110.129 25.3841 111.054 25.6055C111.978 25.8138 112.968 25.918 114.023 25.918C115.403 25.918 116.425 25.7682 117.089 25.4688C117.753 25.1562 118.085 24.7005 118.085 24.1016C118.085 23.5677 117.89 23.1836 117.499 22.9492C117.109 22.7018 116.366 22.4674 115.273 22.2461C114.752 22.1289 114.042 22.0052 113.144 21.875C112.258 21.7318 111.451 21.5625 110.722 21.3672C108.73 20.8464 107.252 20.0391 106.288 18.9453C105.325 17.8385 104.843 16.4648 104.843 14.8242C104.843 12.7148 105.839 10.9635 107.831 9.57031C109.836 8.16406 112.571 7.46094 116.034 7.46094C117.675 7.46094 119.244 7.63021 120.741 7.96875C122.252 8.29427 123.43 8.64583 124.277 9.02344V14.5703H123.671C122.629 13.8542 121.438 13.2747 120.097 12.832C118.769 12.3763 117.421 12.1484 116.054 12.1484C114.921 12.1484 113.964 12.3047 113.183 12.6172C112.415 12.9297 112.03 13.3724 112.03 13.9453C112.03 14.4661 112.206 14.8633 112.558 15.1367C112.909 15.4102 113.736 15.6836 115.038 15.957C115.754 16.1003 116.523 16.2435 117.343 16.3867C118.176 16.5169 119.01 16.6862 119.843 16.8945C121.692 17.3763 123.059 18.138 123.945 19.1797C124.83 20.2083 125.273 21.4974 125.273 23.0469ZM150.362 20.332H134.268C134.372 22.0508 135.023 23.3659 136.221 24.2773C137.432 25.1888 139.209 25.6445 141.553 25.6445C143.037 25.6445 144.476 25.3776 145.87 24.8438C147.263 24.3099 148.363 23.737 149.17 23.125H149.952V28.7695C148.363 29.4076 146.866 29.8698 145.459 30.1562C144.053 30.4427 142.497 30.5859 140.791 30.5859C136.39 30.5859 133.018 29.5964 130.674 27.6172C128.33 25.638 127.159 22.819 127.159 19.1602C127.159 15.5404 128.265 12.6758 130.479 10.5664C132.705 8.44401 135.752 7.38281 139.62 7.38281C143.187 7.38281 145.87 8.28776 147.666 10.0977C149.463 11.8945 150.362 14.4857 150.362 17.8711V20.332ZM143.37 16.2109C143.33 14.7396 142.966 13.6328 142.276 12.8906C141.586 12.1484 140.511 11.7773 139.053 11.7773C137.699 11.7773 136.586 12.1289 135.713 12.832C134.841 13.5352 134.353 14.6615 134.248 16.2109H143.37ZM21.5906 64.8984C21.5906 66.8516 21.2911 68.7266 20.6922 70.5234C20.0932 72.3203 19.2469 73.8828 18.1531 75.2109C17.0203 76.5911 15.7117 77.6719 14.2273 78.4531C12.743 79.2214 11.0112 79.6055 9.03203 79.6055C6.44088 79.6055 4.41614 78.8698 2.95781 77.3984C1.5125 75.9141 0.789841 73.8698 0.789841 71.2656C0.789841 69.3125 1.08281 67.4505 1.66875 65.6797C2.26771 63.9089 3.12708 62.3333 4.24687 60.9531C5.3276 59.625 6.64922 58.5638 8.21172 57.7695C9.78724 56.9753 11.506 56.5781 13.368 56.5781C15.881 56.5781 17.8797 57.2943 19.3641 58.7266C20.8484 60.1589 21.5906 62.2161 21.5906 64.8984ZM15.6141 73.1406C16.3172 72.099 16.851 70.8945 17.2156 69.5273C17.5932 68.1602 17.782 66.7148 17.782 65.1914C17.782 63.3685 17.3458 61.9883 16.4734 61.0508C15.601 60.1133 14.3706 59.6445 12.782 59.6445C11.519 59.6445 10.3862 59.9505 9.38359 60.5625C8.38099 61.1615 7.5151 61.9883 6.78593 63.043C6.08281 64.0716 5.54244 65.276 5.16484 66.6562C4.78724 68.0365 4.59843 69.4688 4.59843 70.9531C4.59843 72.75 5.03463 74.1302 5.90703 75.0938C6.77942 76.0573 8.0164 76.5391 9.61797 76.5391C10.868 76.5391 12.0008 76.2396 13.0164 75.6406C14.032 75.0417 14.8979 74.2083 15.6141 73.1406ZM40.9961 52.0273H40.8008C40.4232 51.8971 39.9219 51.7734 39.2969 51.6562C38.6719 51.5391 38.112 51.4805 37.6172 51.4805C36.0156 51.4805 34.8112 51.8841 34.0039 52.6914C33.2096 53.4987 32.6107 54.7487 32.207 56.4414L32.0312 57.1836H38.6523L37.9492 60.1133H31.4453L27.1875 79H23.4766L27.7344 60.1133H25.2539L25.957 57.1836H28.4375L28.5937 56.4609C29.1276 53.9089 30.1693 51.9297 31.7187 50.5234C33.2812 49.1172 35.2865 48.4141 37.7344 48.4141C38.5547 48.4141 39.2969 48.4531 39.9609 48.5312C40.625 48.6094 41.224 48.7005 41.7578 48.8047L40.9961 52.0273ZM64.3383 79.5664C62.1768 79.5664 60.1781 79.2474 58.3422 78.6094C56.5193 77.9714 54.9503 77.0208 53.6352 75.7578C52.3201 74.4948 51.2979 72.9193 50.5687 71.0312C49.8526 69.1432 49.4945 66.9622 49.4945 64.4883C49.4945 62.1836 49.8396 60.0938 50.5297 58.2188C51.2198 56.3438 52.2224 54.7357 53.5375 53.3945C54.8005 52.1055 56.363 51.1094 58.225 50.4062C60.1 49.7031 62.1443 49.3516 64.3578 49.3516C65.5818 49.3516 66.682 49.4232 67.6586 49.5664C68.6482 49.6966 69.5596 49.8724 70.393 50.0938C71.2654 50.3411 72.0531 50.6211 72.7562 50.9336C73.4724 51.2331 74.0974 51.513 74.6312 51.7734V58.8242H73.7719C73.4073 58.5117 72.9451 58.1406 72.3852 57.7109C71.8383 57.2812 71.2133 56.8581 70.5102 56.4414C69.794 56.0247 69.0193 55.6732 68.1859 55.3867C67.3526 55.1003 66.4607 54.957 65.5102 54.957C64.4555 54.957 63.4529 55.1263 62.5023 55.4648C61.5518 55.7904 60.6729 56.3372 59.8656 57.1055C59.0974 57.8477 58.4724 58.8307 57.9906 60.0547C57.5219 61.2786 57.2875 62.763 57.2875 64.5078C57.2875 66.3307 57.5414 67.8542 58.0492 69.0781C58.5701 70.3021 59.2211 71.2656 60.0023 71.9688C60.7966 72.6849 61.682 73.1992 62.6586 73.5117C63.6352 73.8112 64.5987 73.9609 65.5492 73.9609C66.4607 73.9609 67.3591 73.8242 68.2445 73.5508C69.143 73.2773 69.9698 72.9062 70.725 72.4375C71.363 72.0599 71.9555 71.6562 72.5023 71.2266C73.0492 70.7969 73.4984 70.4258 73.85 70.1133H74.6312V77.0664C73.9021 77.3919 73.2055 77.6979 72.5414 77.9844C71.8773 78.2708 71.1807 78.5182 70.4516 78.7266C69.501 79 68.6091 79.2083 67.7758 79.3516C66.9424 79.4948 65.7966 79.5664 64.3383 79.5664ZM91.8297 73.2773V68.707C90.8792 68.7852 89.8505 68.8958 88.7437 69.0391C87.637 69.1693 86.7971 69.3255 86.2242 69.5078C85.5211 69.7292 84.9807 70.0547 84.6031 70.4844C84.2385 70.901 84.0562 71.4544 84.0562 72.1445C84.0562 72.6003 84.0953 72.9714 84.1734 73.2578C84.2516 73.5443 84.4469 73.8177 84.7594 74.0781C85.0588 74.3385 85.4169 74.5339 85.8336 74.6641C86.2503 74.7812 86.9013 74.8398 87.7867 74.8398C88.4898 74.8398 89.1995 74.6966 89.9156 74.4102C90.6448 74.1237 91.2828 73.7461 91.8297 73.2773ZM91.8297 76.6758C91.4521 76.9622 90.9833 77.3073 90.4234 77.7109C89.8635 78.1146 89.3362 78.4336 88.8414 78.668C88.1513 78.9805 87.4352 79.2083 86.693 79.3516C85.9508 79.5078 85.137 79.5859 84.2516 79.5859C82.1682 79.5859 80.4234 78.9414 79.0172 77.6523C77.6109 76.3633 76.9078 74.7161 76.9078 72.7109C76.9078 71.1094 77.2659 69.8008 77.982 68.7852C78.6982 67.7695 79.7138 66.9688 81.0289 66.3828C82.331 65.7969 83.9456 65.3802 85.8727 65.1328C87.7997 64.8854 89.7984 64.7031 91.8687 64.5859V64.4688C91.8687 63.2578 91.374 62.4245 90.3844 61.9688C89.3948 61.5 87.9365 61.2656 86.0094 61.2656C84.8505 61.2656 83.6135 61.474 82.2984 61.8906C80.9833 62.2943 80.0393 62.6068 79.4664 62.8281H78.8219V57.5352C79.5641 57.3398 80.7685 57.112 82.4352 56.8516C84.1148 56.5781 85.7945 56.4414 87.4742 56.4414C91.4716 56.4414 94.3557 57.0599 96.1266 58.2969C97.9104 59.5208 98.8023 61.4479 98.8023 64.0781V79H91.8297V76.6758ZM119.966 63.7656H119.341C119.041 63.6615 118.559 63.5833 117.895 63.5312C117.231 63.4792 116.678 63.4531 116.235 63.4531C115.233 63.4531 114.347 63.5182 113.579 63.6484C112.811 63.7786 111.984 64 111.098 64.3125V79H104.067V57.0664H111.098V60.2891C112.648 58.9609 113.996 58.082 115.141 57.6523C116.287 57.2096 117.342 56.9883 118.305 56.9883C118.553 56.9883 118.833 56.9948 119.145 57.0078C119.458 57.0208 119.731 57.0404 119.966 57.0664V63.7656ZM144.078 79H137.047V76.7148C135.836 77.7044 134.703 78.4336 133.648 78.9023C132.594 79.3711 131.376 79.6055 129.996 79.6055C127.327 79.6055 125.191 78.5768 123.59 76.5195C121.988 74.4622 121.188 71.6888 121.188 68.1992C121.188 66.3372 121.454 64.6901 121.988 63.2578C122.535 61.8125 123.277 60.5755 124.215 59.5469C125.1 58.5703 126.174 57.8151 127.438 57.2812C128.701 56.7344 129.964 56.4609 131.227 56.4609C132.542 56.4609 133.616 56.6042 134.449 56.8906C135.296 57.1641 136.161 57.5156 137.047 57.9453V48.6094H144.078V79ZM137.047 72.9453V62.1836C136.552 61.9753 136.031 61.8255 135.484 61.7344C134.938 61.6432 134.436 61.5977 133.98 61.5977C132.132 61.5977 130.745 62.1771 129.82 63.3359C128.896 64.4818 128.434 66.0768 128.434 68.1211C128.434 70.2695 128.805 71.832 129.547 72.8086C130.289 73.7721 131.48 74.2539 133.121 74.2539C133.759 74.2539 134.436 74.1367 135.152 73.9023C135.868 73.6549 136.5 73.3359 137.047 72.9453ZM168.581 72.0469C168.581 74.3125 167.566 76.1419 165.534 77.5352C163.503 78.9154 160.723 79.6055 157.195 79.6055C155.241 79.6055 153.471 79.4232 151.882 79.0586C150.293 78.694 149.017 78.2904 148.054 77.8477V72.0664H148.698C149.05 72.3138 149.454 72.5872 149.909 72.8867C150.378 73.1732 151.036 73.4857 151.882 73.8242C152.611 74.1237 153.438 74.3841 154.363 74.6055C155.287 74.8138 156.277 74.918 157.331 74.918C158.711 74.918 159.734 74.7682 160.398 74.4688C161.062 74.1562 161.394 73.7005 161.394 73.1016C161.394 72.5677 161.198 72.1836 160.808 71.9492C160.417 71.7018 159.675 71.4674 158.581 71.2461C158.06 71.1289 157.351 71.0052 156.452 70.875C155.567 70.7318 154.76 70.5625 154.03 70.3672C152.038 69.8464 150.56 69.0391 149.597 67.9453C148.633 66.8385 148.152 65.4648 148.152 63.8242C148.152 61.7148 149.148 59.9635 151.14 58.5703C153.145 57.1641 155.879 56.4609 159.343 56.4609C160.984 56.4609 162.553 56.6302 164.05 56.9688C165.56 57.2943 166.739 57.6458 167.585 58.0234V63.5703H166.98C165.938 62.8542 164.747 62.2747 163.405 61.832C162.077 61.3763 160.73 61.1484 159.363 61.1484C158.23 61.1484 157.273 61.3047 156.491 61.6172C155.723 61.9297 155.339 62.3724 155.339 62.9453C155.339 63.4661 155.515 63.8633 155.866 64.1367C156.218 64.4102 157.045 64.6836 158.347 64.957C159.063 65.1003 159.831 65.2435 160.652 65.3867C161.485 65.5169 162.318 65.6862 163.152 65.8945C165.001 66.3763 166.368 67.138 167.253 68.1797C168.139 69.2083 168.581 70.4974 168.581 72.0469Z" fill="#FFF9C4"/>
</svg>
