<svg width="3843" height="744" viewBox="0 0 3843 744" fill="none" xmlns="http://www.w3.org/2000/svg">
<g filter="url(#filter0_d_20_7)">
<mask id="path-1-inside-1_20_7" fill="white">
<path d="M142.8 339.6H294C309.2 339.6 321 336 329.4 328.8C337.8 321.6 342 311.2 342 297.6C342 284 337.8 273.6 329.4 266.4C321 259.2 309.2 255.6 294 255.6H121.2L190.8 186V597H36V147H318C354 147 385.4 153.4 412.2 166.2C439.4 178.6 460.4 196 475.2 218.4C490.4 240.8 498 267.2 498 297.6C498 327.2 490.4 353.4 475.2 376.2C460.4 398.6 439.4 416 412.2 428.4C385.4 440.8 354 447 318 447H142.8V339.6ZM195.6 386.4H366.6L516 597H339L195.6 386.4ZM550.284 135H702.684V597H550.284V135ZM822.084 241.2C855.684 241.2 884.284 248 907.884 261.6C931.484 274.8 949.484 293.6 961.884 318C974.684 342 981.084 370.2 981.084 402.6V597H828.684V424.2C828.684 405 823.284 390.2 812.484 379.8C802.084 369.4 787.284 364.2 768.084 364.2C754.484 364.2 742.684 367 732.684 372.6C723.084 377.8 715.684 385.6 710.484 396C705.284 406 702.684 418.2 702.684 432.6L657.684 409.8C663.284 372.2 674.084 341 690.084 316.2C706.084 291 725.484 272.2 748.284 259.8C771.084 247.4 795.684 241.2 822.084 241.2ZM1153.99 706.8C1125.19 706.8 1099.79 703.2 1077.79 696C1056.19 689.2 1034.59 677.8 1012.99 661.8V559.8C1034.19 573.4 1053.79 583.2 1071.79 589.2C1090.19 594.8 1109.99 597.6 1131.19 597.6C1147.99 597.6 1162.59 594.2 1174.99 587.4C1187.79 580.2 1198.19 566.6 1206.19 546.6L1323.19 252H1485.19L1327.99 592.2C1314.79 621 1298.59 643.8 1279.39 660.6C1260.59 677.4 1240.39 689.2 1218.79 696C1197.19 703.2 1175.59 706.8 1153.99 706.8ZM1134.79 550.8L996.192 252H1164.19L1279.99 550.8H1134.79ZM1481.33 363V297.6L1549.13 263.4L1615.73 157.8H1701.53V252H1836.53V363H1701.53V433.8C1701.53 455.8 1705.73 471.4 1714.13 480.6C1722.53 489.4 1739.73 493.8 1765.73 493.8C1781.73 493.8 1795.93 492.8 1808.33 490.8C1821.13 488.4 1832.53 485.6 1842.53 482.4V592.8C1828.93 596.8 1812.13 600.2 1792.13 603C1772.53 606.2 1751.93 607.8 1730.33 607.8C1689.53 607.8 1655.73 601.8 1628.93 589.8C1602.13 577.4 1582.13 559.6 1568.93 536.4C1555.73 513.2 1549.13 485.6 1549.13 453.6V363H1481.33ZM1887.39 135H2039.79V597H1887.39V135ZM2159.19 241.2C2192.79 241.2 2221.39 248 2244.99 261.6C2268.59 274.8 2286.59 293.6 2298.99 318C2311.79 342 2318.19 370.2 2318.19 402.6V597H2165.79V424.2C2165.79 405 2160.39 390.2 2149.59 379.8C2139.19 369.4 2124.39 364.2 2105.19 364.2C2091.59 364.2 2079.79 367 2069.79 372.6C2060.19 377.8 2052.79 385.6 2047.59 396C2042.39 406 2039.79 418.2 2039.79 432.6L1994.79 409.8C2000.39 372.2 2011.19 341 2027.19 316.2C2043.19 291 2062.59 272.2 2085.39 259.8C2108.19 247.4 2132.79 241.2 2159.19 241.2ZM2352.83 252H2505.23L2529.23 399V597H2376.83V375.6L2352.83 252ZM2642.63 241.2C2675.03 241.2 2702.63 248 2725.43 261.6C2748.23 274.8 2765.63 293.6 2777.63 318C2789.63 342 2795.63 370.2 2795.63 402.6V597H2643.23V424.2C2643.23 405 2638.43 390.2 2628.83 379.8C2619.63 369.4 2606.23 364.2 2588.63 364.2C2576.23 364.2 2565.43 367 2556.23 372.6C2547.43 377.8 2540.63 385.6 2535.83 396C2531.43 406 2529.23 418.2 2529.23 432.6L2484.23 409.8C2489.83 372.2 2500.23 341 2515.43 316.2C2531.03 291 2549.83 272.2 2571.83 259.8C2593.83 247.4 2617.43 241.2 2642.63 241.2ZM2908.43 241.2C2940.83 241.2 2968.43 248 2991.23 261.6C3014.43 274.8 3032.03 293.6 3044.03 318C3056.03 342 3062.03 370.2 3062.03 402.6V597H2909.63V424.2C2909.63 405 2904.83 390.2 2895.23 379.8C2886.03 369.4 2872.63 364.2 2855.03 364.2C2842.63 364.2 2831.83 367 2822.63 372.6C2813.83 377.8 2807.03 385.6 2802.23 396C2797.83 406 2795.63 418.2 2795.63 432.6L2750.63 409.8C2756.23 372.2 2766.63 341 2781.83 316.2C2797.03 291 2815.63 272.2 2837.63 259.8C2859.63 247.4 2883.23 241.2 2908.43 241.2ZM3829.91 445.2C3827.11 477.6 3815.71 506 3795.71 530.4C3775.71 554.8 3749.51 573.8 3717.11 587.4C3685.11 601 3648.91 607.8 3608.51 607.8C3564.51 607.8 3525.71 600.2 3492.11 585C3458.51 569.4 3432.31 547.8 3413.51 520.2C3394.71 492.6 3385.31 460.8 3385.31 424.8C3385.31 388.4 3394.71 356.6 3413.51 329.4C3432.31 301.8 3458.51 280.2 3492.11 264.6C3525.71 249 3564.51 241.2 3608.51 241.2C3648.91 241.2 3685.11 248 3717.11 261.6C3749.51 275.2 3775.71 294.2 3795.71 318.6C3815.71 342.6 3827.11 371 3829.91 403.8H3679.31C3675.71 386.6 3667.51 373.8 3654.71 365.4C3642.31 356.6 3626.91 352.2 3608.51 352.2C3594.51 352.2 3582.11 355 3571.31 360.6C3560.91 365.8 3552.91 373.8 3547.31 384.6C3541.71 395.4 3538.91 408.8 3538.91 424.8C3538.91 440.8 3541.71 454.2 3547.31 465C3552.91 475.4 3560.91 483.4 3571.31 489C3582.11 494.2 3594.51 496.8 3608.51 496.8C3626.91 496.8 3642.31 492.2 3654.71 483C3667.51 473.4 3675.71 460.8 3679.31 445.2H3829.91Z"/>
</mask>
<path d="M142.8 339.6H294C309.2 339.6 321 336 329.4 328.8C337.8 321.6 342 311.2 342 297.6C342 284 337.8 273.6 329.4 266.4C321 259.2 309.2 255.6 294 255.6H121.2L190.8 186V597H36V147H318C354 147 385.4 153.4 412.2 166.2C439.4 178.6 460.4 196 475.2 218.4C490.4 240.8 498 267.2 498 297.6C498 327.2 490.4 353.4 475.2 376.2C460.4 398.6 439.4 416 412.2 428.4C385.4 440.8 354 447 318 447H142.8V339.6ZM195.6 386.4H366.6L516 597H339L195.6 386.4ZM550.284 135H702.684V597H550.284V135ZM822.084 241.2C855.684 241.2 884.284 248 907.884 261.6C931.484 274.8 949.484 293.6 961.884 318C974.684 342 981.084 370.2 981.084 402.6V597H828.684V424.2C828.684 405 823.284 390.2 812.484 379.8C802.084 369.4 787.284 364.2 768.084 364.2C754.484 364.2 742.684 367 732.684 372.6C723.084 377.8 715.684 385.6 710.484 396C705.284 406 702.684 418.2 702.684 432.6L657.684 409.8C663.284 372.2 674.084 341 690.084 316.2C706.084 291 725.484 272.2 748.284 259.8C771.084 247.4 795.684 241.2 822.084 241.2ZM1153.99 706.8C1125.19 706.8 1099.79 703.2 1077.79 696C1056.19 689.2 1034.59 677.8 1012.99 661.8V559.8C1034.19 573.4 1053.79 583.2 1071.79 589.2C1090.19 594.8 1109.99 597.6 1131.19 597.6C1147.99 597.6 1162.59 594.2 1174.99 587.4C1187.79 580.2 1198.19 566.6 1206.19 546.6L1323.19 252H1485.19L1327.99 592.2C1314.79 621 1298.59 643.8 1279.39 660.6C1260.59 677.4 1240.39 689.2 1218.79 696C1197.19 703.2 1175.59 706.8 1153.99 706.8ZM1134.79 550.8L996.192 252H1164.19L1279.99 550.8H1134.79ZM1481.33 363V297.6L1549.13 263.4L1615.73 157.8H1701.53V252H1836.53V363H1701.53V433.8C1701.53 455.8 1705.73 471.4 1714.13 480.6C1722.53 489.4 1739.73 493.8 1765.73 493.8C1781.73 493.8 1795.93 492.8 1808.33 490.8C1821.13 488.4 1832.53 485.6 1842.53 482.4V592.8C1828.93 596.8 1812.13 600.2 1792.13 603C1772.53 606.2 1751.93 607.8 1730.33 607.8C1689.53 607.8 1655.73 601.8 1628.93 589.8C1602.13 577.4 1582.13 559.6 1568.93 536.4C1555.73 513.2 1549.13 485.6 1549.13 453.6V363H1481.33ZM1887.39 135H2039.79V597H1887.39V135ZM2159.19 241.2C2192.79 241.2 2221.39 248 2244.99 261.6C2268.59 274.8 2286.59 293.6 2298.99 318C2311.79 342 2318.19 370.2 2318.19 402.6V597H2165.79V424.2C2165.79 405 2160.39 390.2 2149.59 379.8C2139.19 369.4 2124.39 364.2 2105.19 364.2C2091.59 364.2 2079.79 367 2069.79 372.6C2060.19 377.8 2052.79 385.6 2047.59 396C2042.39 406 2039.79 418.2 2039.79 432.6L1994.79 409.8C2000.39 372.2 2011.19 341 2027.19 316.2C2043.19 291 2062.59 272.2 2085.39 259.8C2108.19 247.4 2132.79 241.2 2159.19 241.2ZM2352.83 252H2505.23L2529.23 399V597H2376.83V375.6L2352.83 252ZM2642.63 241.2C2675.03 241.2 2702.63 248 2725.43 261.6C2748.23 274.8 2765.63 293.6 2777.63 318C2789.63 342 2795.63 370.2 2795.63 402.6V597H2643.23V424.2C2643.23 405 2638.43 390.2 2628.83 379.8C2619.63 369.4 2606.23 364.2 2588.63 364.2C2576.23 364.2 2565.43 367 2556.23 372.6C2547.43 377.8 2540.63 385.6 2535.83 396C2531.43 406 2529.23 418.2 2529.23 432.6L2484.23 409.8C2489.83 372.2 2500.23 341 2515.43 316.2C2531.03 291 2549.83 272.2 2571.83 259.8C2593.83 247.4 2617.43 241.2 2642.63 241.2ZM2908.43 241.2C2940.83 241.2 2968.43 248 2991.23 261.6C3014.43 274.8 3032.03 293.6 3044.03 318C3056.03 342 3062.03 370.2 3062.03 402.6V597H2909.63V424.2C2909.63 405 2904.83 390.2 2895.23 379.8C2886.03 369.4 2872.63 364.2 2855.03 364.2C2842.63 364.2 2831.83 367 2822.63 372.6C2813.83 377.8 2807.03 385.6 2802.23 396C2797.83 406 2795.63 418.2 2795.63 432.6L2750.63 409.8C2756.23 372.2 2766.63 341 2781.83 316.2C2797.03 291 2815.63 272.2 2837.63 259.8C2859.63 247.4 2883.23 241.2 2908.43 241.2ZM3829.91 445.2C3827.11 477.6 3815.71 506 3795.71 530.4C3775.71 554.8 3749.51 573.8 3717.11 587.4C3685.11 601 3648.91 607.8 3608.51 607.8C3564.51 607.8 3525.71 600.2 3492.11 585C3458.51 569.4 3432.31 547.8 3413.51 520.2C3394.71 492.6 3385.31 460.8 3385.31 424.8C3385.31 388.4 3394.71 356.6 3413.51 329.4C3432.31 301.8 3458.51 280.2 3492.11 264.6C3525.71 249 3564.51 241.2 3608.51 241.2C3648.91 241.2 3685.11 248 3717.11 261.6C3749.51 275.2 3775.71 294.2 3795.71 318.6C3815.71 342.6 3827.11 371 3829.91 403.8H3679.31C3675.71 386.6 3667.51 373.8 3654.71 365.4C3642.31 356.6 3626.91 352.2 3608.51 352.2C3594.51 352.2 3582.11 355 3571.31 360.6C3560.91 365.8 3552.91 373.8 3547.31 384.6C3541.71 395.4 3538.91 408.8 3538.91 424.8C3538.91 440.8 3541.71 454.2 3547.31 465C3552.91 475.4 3560.91 483.4 3571.31 489C3582.11 494.2 3594.51 496.8 3608.51 496.8C3626.91 496.8 3642.31 492.2 3654.71 483C3667.51 473.4 3675.71 460.8 3679.31 445.2H3829.91Z" fill="white"/>
<path d="M142.8 339.6H294C309.2 339.6 321 336 329.4 328.8C337.8 321.6 342 311.2 342 297.6C342 284 337.8 273.6 329.4 266.4C321 259.2 309.2 255.6 294 255.6H121.2L190.8 186V597H36V147H318C354 147 385.4 153.4 412.2 166.2C439.4 178.6 460.4 196 475.2 218.4C490.4 240.8 498 267.2 498 297.6C498 327.2 490.4 353.4 475.2 376.2C460.4 398.6 439.4 416 412.2 428.4C385.4 440.8 354 447 318 447H142.8V339.6ZM195.6 386.4H366.6L516 597H339L195.6 386.4ZM550.284 135H702.684V597H550.284V135ZM822.084 241.2C855.684 241.2 884.284 248 907.884 261.6C931.484 274.8 949.484 293.6 961.884 318C974.684 342 981.084 370.2 981.084 402.6V597H828.684V424.2C828.684 405 823.284 390.2 812.484 379.8C802.084 369.4 787.284 364.2 768.084 364.2C754.484 364.2 742.684 367 732.684 372.6C723.084 377.8 715.684 385.6 710.484 396C705.284 406 702.684 418.2 702.684 432.6L657.684 409.8C663.284 372.2 674.084 341 690.084 316.2C706.084 291 725.484 272.2 748.284 259.8C771.084 247.4 795.684 241.2 822.084 241.2ZM1153.99 706.8C1125.19 706.8 1099.79 703.2 1077.79 696C1056.19 689.2 1034.59 677.8 1012.99 661.8V559.8C1034.19 573.4 1053.79 583.2 1071.79 589.2C1090.19 594.8 1109.99 597.6 1131.19 597.6C1147.99 597.6 1162.59 594.2 1174.99 587.4C1187.79 580.2 1198.19 566.6 1206.19 546.6L1323.19 252H1485.19L1327.99 592.2C1314.79 621 1298.59 643.8 1279.39 660.6C1260.59 677.4 1240.39 689.2 1218.79 696C1197.19 703.2 1175.59 706.8 1153.99 706.8ZM1134.79 550.8L996.192 252H1164.19L1279.99 550.8H1134.79ZM1481.33 363V297.6L1549.13 263.4L1615.73 157.8H1701.53V252H1836.53V363H1701.53V433.8C1701.53 455.8 1705.73 471.4 1714.13 480.6C1722.53 489.4 1739.73 493.8 1765.73 493.8C1781.73 493.8 1795.93 492.8 1808.33 490.8C1821.13 488.4 1832.53 485.6 1842.53 482.4V592.8C1828.93 596.8 1812.13 600.2 1792.13 603C1772.53 606.2 1751.93 607.8 1730.33 607.8C1689.53 607.8 1655.73 601.8 1628.93 589.8C1602.13 577.4 1582.13 559.6 1568.93 536.4C1555.73 513.2 1549.13 485.6 1549.13 453.6V363H1481.33ZM1887.39 135H2039.79V597H1887.39V135ZM2159.19 241.2C2192.79 241.2 2221.39 248 2244.99 261.6C2268.59 274.8 2286.59 293.6 2298.99 318C2311.79 342 2318.19 370.2 2318.19 402.6V597H2165.79V424.2C2165.79 405 2160.39 390.2 2149.59 379.8C2139.19 369.4 2124.39 364.2 2105.19 364.2C2091.59 364.2 2079.79 367 2069.79 372.6C2060.19 377.8 2052.79 385.6 2047.59 396C2042.39 406 2039.79 418.2 2039.79 432.6L1994.79 409.8C2000.39 372.2 2011.19 341 2027.19 316.2C2043.19 291 2062.59 272.2 2085.39 259.8C2108.19 247.4 2132.79 241.2 2159.19 241.2ZM2352.83 252H2505.23L2529.23 399V597H2376.83V375.6L2352.83 252ZM2642.63 241.2C2675.03 241.2 2702.63 248 2725.43 261.6C2748.23 274.8 2765.63 293.6 2777.63 318C2789.63 342 2795.63 370.2 2795.63 402.6V597H2643.23V424.2C2643.23 405 2638.43 390.2 2628.83 379.8C2619.63 369.4 2606.23 364.2 2588.63 364.2C2576.23 364.2 2565.43 367 2556.23 372.6C2547.43 377.8 2540.63 385.6 2535.83 396C2531.43 406 2529.23 418.2 2529.23 432.6L2484.23 409.8C2489.83 372.2 2500.23 341 2515.43 316.2C2531.03 291 2549.83 272.2 2571.83 259.8C2593.83 247.4 2617.43 241.2 2642.63 241.2ZM2908.43 241.2C2940.83 241.2 2968.43 248 2991.23 261.6C3014.43 274.8 3032.03 293.6 3044.03 318C3056.03 342 3062.03 370.2 3062.03 402.6V597H2909.63V424.2C2909.63 405 2904.83 390.2 2895.23 379.8C2886.03 369.4 2872.63 364.2 2855.03 364.2C2842.63 364.2 2831.83 367 2822.63 372.6C2813.83 377.8 2807.03 385.6 2802.23 396C2797.83 406 2795.63 418.2 2795.63 432.6L2750.63 409.8C2756.23 372.2 2766.63 341 2781.83 316.2C2797.03 291 2815.63 272.2 2837.63 259.8C2859.63 247.4 2883.23 241.2 2908.43 241.2ZM3829.91 445.2C3827.11 477.6 3815.71 506 3795.71 530.4C3775.71 554.8 3749.51 573.8 3717.11 587.4C3685.11 601 3648.91 607.8 3608.51 607.8C3564.51 607.8 3525.71 600.2 3492.11 585C3458.51 569.4 3432.31 547.8 3413.51 520.2C3394.71 492.6 3385.31 460.8 3385.31 424.8C3385.31 388.4 3394.71 356.6 3413.51 329.4C3432.31 301.8 3458.51 280.2 3492.11 264.6C3525.71 249 3564.51 241.2 3608.51 241.2C3648.91 241.2 3685.11 248 3717.11 261.6C3749.51 275.2 3775.71 294.2 3795.71 318.6C3815.71 342.6 3827.11 371 3829.91 403.8H3679.31C3675.71 386.6 3667.51 373.8 3654.71 365.4C3642.31 356.6 3626.91 352.2 3608.51 352.2C3594.51 352.2 3582.11 355 3571.31 360.6C3560.91 365.8 3552.91 373.8 3547.31 384.6C3541.71 395.4 3538.91 408.8 3538.91 424.8C3538.91 440.8 3541.71 454.2 3547.31 465C3552.91 475.4 3560.91 483.4 3571.31 489C3582.11 494.2 3594.51 496.8 3608.51 496.8C3626.91 496.8 3642.31 492.2 3654.71 483C3667.51 473.4 3675.71 460.8 3679.31 445.2H3829.91Z" fill="url(#paint0_linear_20_7)"/>
<path d="M142.8 339.6V328.6H131.8V339.6H142.8ZM329.4 266.4L322.241 274.752L322.241 274.752L329.4 266.4ZM121.2 255.6L113.422 247.822L94.6437 266.6H121.2V255.6ZM190.8 186H201.8V159.444L183.022 178.222L190.8 186ZM190.8 597V608H201.8V597H190.8ZM36 597H25V608H36V597ZM36 147V136H25V147H36ZM412.2 166.2L407.459 176.126L407.548 176.168L407.637 176.209L412.2 166.2ZM475.2 218.4L466.022 224.464L466.06 224.52L466.098 224.576L475.2 218.4ZM475.2 376.2L466.047 370.098L466.035 370.117L466.022 370.136L475.2 376.2ZM412.2 428.4L407.637 418.391L407.609 418.404L407.581 418.417L412.2 428.4ZM142.8 447H131.8V458H142.8V447ZM195.6 386.4V375.4H174.802L186.508 392.591L195.6 386.4ZM366.6 386.4L375.572 380.035L372.283 375.4H366.6V386.4ZM516 597V608H537.29L524.972 590.635L516 597ZM339 597L329.908 603.191L333.182 608H339V597ZM142.8 350.6H294V328.6H142.8V350.6ZM294 350.6C310.845 350.6 325.529 346.606 336.559 337.152L322.241 320.448C316.471 325.394 307.555 328.6 294 328.6V350.6ZM336.559 337.152C347.946 327.391 353 313.609 353 297.6H331C331 308.791 327.654 315.809 322.241 320.448L336.559 337.152ZM353 297.6C353 281.591 347.946 267.809 336.559 258.048L322.241 274.752C327.654 279.391 331 286.409 331 297.6H353ZM336.559 258.048C325.529 248.594 310.845 244.6 294 244.6V266.6C307.555 266.6 316.471 269.806 322.241 274.752L336.559 258.048ZM294 244.6H121.2V266.6H294V244.6ZM128.978 263.378L198.578 193.778L183.022 178.222L113.422 247.822L128.978 263.378ZM179.8 186V597H201.8V186H179.8ZM190.8 586H36V608H190.8V586ZM47 597V147H25V597H47ZM36 158H318V136H36V158ZM318 158C352.702 158 382.42 164.167 407.459 176.126L416.941 156.274C388.38 142.633 355.298 136 318 136V158ZM407.637 176.209C433.179 187.853 452.486 203.977 466.022 224.464L484.378 212.336C468.314 188.023 445.621 169.347 416.763 156.191L407.637 176.209ZM466.098 224.576C479.912 244.935 487 269.121 487 297.6H509C509 265.279 500.888 236.665 484.302 212.223L466.098 224.576ZM487 297.6C487 325.211 479.946 349.251 466.047 370.098L484.353 382.302C500.855 357.549 509 329.189 509 297.6H487ZM466.022 370.136C452.486 390.623 433.179 406.747 407.637 418.391L416.763 438.409C445.621 425.253 468.314 406.577 484.378 382.264L466.022 370.136ZM407.581 418.417C382.51 430.017 352.747 436 318 436V458C355.253 458 388.29 451.583 416.819 438.383L407.581 418.417ZM318 436H142.8V458H318V436ZM153.8 447V339.6H131.8V447H153.8ZM195.6 397.4H366.6V375.4H195.6V397.4ZM357.628 392.765L507.028 603.365L524.972 590.635L375.572 380.035L357.628 392.765ZM516 586H339V608H516V586ZM348.092 590.809L204.692 380.209L186.508 392.591L329.908 603.191L348.092 590.809ZM550.284 135V124H539.284V135H550.284ZM702.684 135H713.684V124H702.684V135ZM702.684 597V608H713.684V597H702.684ZM550.284 597H539.284V608H550.284V597ZM907.884 261.6L902.392 271.131L902.453 271.166L902.515 271.2L907.884 261.6ZM961.884 318L952.078 322.984L952.127 323.08L952.179 323.176L961.884 318ZM981.084 597V608H992.084V597H981.084ZM828.684 597H817.684V608H828.684V597ZM812.484 379.8L804.706 387.578L804.78 387.652L804.854 387.724L812.484 379.8ZM732.684 372.6L737.923 382.272L737.992 382.235L738.059 382.198L732.684 372.6ZM710.484 396L720.244 401.075L720.284 400.997L720.323 400.919L710.484 396ZM702.684 432.6L697.713 442.412L713.684 450.505V432.6H702.684ZM657.684 409.8L646.804 408.18L645.636 416.027L652.713 419.612L657.684 409.8ZM690.084 316.2L699.328 322.163L699.349 322.13L699.371 322.096L690.084 316.2ZM550.284 146H702.684V124H550.284V146ZM691.684 135V597H713.684V135H691.684ZM702.684 586H550.284V608H702.684V586ZM561.284 597V135H539.284V597H561.284ZM822.084 252.2C854.203 252.2 880.811 258.694 902.392 271.131L913.377 252.069C887.758 237.306 857.166 230.2 822.084 230.2V252.2ZM902.515 271.2C924.186 283.322 940.654 300.503 952.078 322.984L971.691 313.016C958.315 286.697 938.783 266.278 913.254 252L902.515 271.2ZM952.179 323.176C963.98 345.305 970.084 371.661 970.084 402.6H992.084C992.084 368.738 985.388 338.695 971.59 312.824L952.179 323.176ZM970.084 402.6V597H992.084V402.6H970.084ZM981.084 586H828.684V608H981.084V586ZM839.684 597V424.2H817.684V597H839.684ZM839.684 424.2C839.684 402.895 833.631 384.892 820.114 371.876L804.854 387.724C812.938 395.508 817.684 407.105 817.684 424.2H839.684ZM820.263 372.022C807.225 358.985 789.274 353.2 768.084 353.2V375.2C785.294 375.2 796.943 379.815 804.706 387.578L820.263 372.022ZM768.084 353.2C752.954 353.2 739.234 356.325 727.31 363.002L738.059 382.198C746.135 377.675 756.015 375.2 768.084 375.2V353.2ZM727.445 362.928C715.729 369.274 706.786 378.801 700.646 391.081L720.323 400.919C724.583 392.399 730.44 386.326 737.923 382.272L727.445 362.928ZM700.725 390.925C694.515 402.867 691.684 416.91 691.684 432.6H713.684C713.684 419.49 716.054 409.133 720.244 401.075L700.725 390.925ZM707.656 422.788L662.656 399.988L652.713 419.612L697.713 442.412L707.656 422.788ZM668.564 411.42C673.998 374.94 684.383 345.328 699.328 322.163L680.841 310.237C663.786 336.672 652.571 369.46 646.804 408.18L668.564 411.42ZM699.371 322.096C714.521 298.234 732.614 280.844 753.54 269.463L743.029 250.137C718.355 263.556 697.648 283.766 680.798 310.304L699.371 322.096ZM753.54 269.463C774.698 257.956 797.487 252.2 822.084 252.2V230.2C793.881 230.2 767.47 236.844 743.029 250.137L753.54 269.463ZM1077.79 696L1081.21 685.546L1081.15 685.526L1081.1 685.508L1077.79 696ZM1012.99 661.8H1001.99V667.341L1006.44 670.639L1012.99 661.8ZM1012.99 559.8L1018.93 550.541L1001.99 539.675V559.8H1012.99ZM1071.79 589.2L1068.31 599.636L1068.45 599.681L1068.59 599.723L1071.79 589.2ZM1174.99 587.4L1180.28 597.045L1180.33 597.016L1180.39 596.987L1174.99 587.4ZM1206.19 546.6L1216.41 550.685L1216.41 550.673L1216.42 550.66L1206.19 546.6ZM1323.19 252V241H1315.73L1312.97 247.94L1323.19 252ZM1485.19 252L1495.18 256.614L1502.39 241H1485.19V252ZM1327.99 592.2L1318.01 587.586L1318 587.601L1317.99 587.617L1327.99 592.2ZM1279.39 660.6L1272.15 652.322L1272.11 652.359L1272.06 652.398L1279.39 660.6ZM1218.79 696L1215.49 685.508L1215.4 685.535L1215.31 685.564L1218.79 696ZM1134.79 550.8L1124.81 555.429L1127.77 561.8H1134.79V550.8ZM996.192 252V241H978.964L986.213 256.629L996.192 252ZM1164.19 252L1174.45 248.025L1171.73 241H1164.19V252ZM1279.99 550.8V561.8H1296.05L1290.25 546.825L1279.99 550.8ZM1153.99 695.8C1126.08 695.8 1101.88 692.308 1081.21 685.546L1074.37 706.454C1097.71 714.092 1124.3 717.8 1153.99 717.8V695.8ZM1081.1 685.508C1060.86 679.136 1040.34 668.366 1019.54 652.961L1006.44 670.639C1028.85 687.234 1051.53 699.264 1074.49 706.492L1081.1 685.508ZM1023.99 661.8V559.8H1001.99V661.8H1023.99ZM1007.05 569.059C1028.79 583.001 1049.22 593.27 1068.31 599.636L1075.27 578.764C1058.37 573.13 1039.6 563.799 1018.93 550.541L1007.05 569.059ZM1068.59 599.723C1088.13 605.67 1109.02 608.6 1131.19 608.6V586.6C1110.97 586.6 1092.26 583.93 1074.99 578.677L1068.59 599.723ZM1131.19 608.6C1149.49 608.6 1165.98 604.887 1180.28 597.045L1169.7 577.755C1159.2 583.513 1146.49 586.6 1131.19 586.6V608.6ZM1180.39 596.987C1196.19 588.097 1207.89 571.964 1216.41 550.685L1195.98 542.515C1188.49 561.236 1179.39 572.303 1169.6 577.813L1180.39 596.987ZM1216.42 550.66L1333.42 256.06L1312.97 247.94L1195.97 542.54L1216.42 550.66ZM1323.19 263H1485.19V241H1323.19V263ZM1475.21 247.386L1318.01 587.586L1337.98 596.814L1495.18 256.614L1475.21 247.386ZM1317.99 587.617C1305.29 615.336 1289.93 636.761 1272.15 652.322L1286.64 668.878C1307.25 650.839 1324.3 626.664 1337.99 596.783L1317.99 587.617ZM1272.06 652.398C1254.29 668.276 1235.44 679.227 1215.49 685.508L1222.1 706.492C1245.35 699.173 1266.89 686.524 1286.72 668.802L1272.06 652.398ZM1215.31 685.564C1194.77 692.411 1174.35 695.8 1153.99 695.8V717.8C1176.84 717.8 1199.61 713.989 1222.27 706.436L1215.31 685.564ZM1144.77 546.171L1006.17 247.371L986.213 256.629L1124.81 555.429L1144.77 546.171ZM996.192 263H1164.19V241H996.192V263ZM1153.94 255.975L1269.74 554.775L1290.25 546.825L1174.45 248.025L1153.94 255.975ZM1279.99 539.8H1134.79V561.8H1279.99V539.8ZM1481.33 363H1470.33V374H1481.33V363ZM1481.33 297.6L1476.38 287.779L1470.33 290.828V297.6H1481.33ZM1549.13 263.4L1554.09 273.221L1556.81 271.848L1558.44 269.268L1549.13 263.4ZM1615.73 157.8V146.8H1609.67L1606.43 151.932L1615.73 157.8ZM1701.53 157.8H1712.53V146.8H1701.53V157.8ZM1701.53 252H1690.53V263H1701.53V252ZM1836.53 252H1847.53V241H1836.53V252ZM1836.53 363V374H1847.53V363H1836.53ZM1701.53 363V352H1690.53V363H1701.53ZM1714.13 480.6L1706.01 488.017L1706.09 488.107L1706.18 488.195L1714.13 480.6ZM1808.33 490.8L1810.09 501.66L1810.22 501.637L1810.36 501.612L1808.33 490.8ZM1842.53 482.4H1853.53V467.331L1839.18 471.923L1842.53 482.4ZM1842.53 592.8L1845.64 603.353L1853.53 601.031V592.8H1842.53ZM1792.13 603L1790.61 592.106L1790.49 592.124L1790.36 592.144L1792.13 603ZM1628.93 589.8L1624.32 599.783L1624.38 599.812L1624.44 599.84L1628.93 589.8ZM1568.93 536.4L1578.5 530.96L1578.5 530.96L1568.93 536.4ZM1549.13 363H1560.13V352H1549.13V363ZM1492.33 363V297.6H1470.33V363H1492.33ZM1486.29 307.421L1554.09 273.221L1544.18 253.579L1476.38 287.779L1486.29 307.421ZM1558.44 269.268L1625.04 163.668L1606.43 151.932L1539.83 257.532L1558.44 269.268ZM1615.73 168.8H1701.53V146.8H1615.73V168.8ZM1690.53 157.8V252H1712.53V157.8H1690.53ZM1701.53 263H1836.53V241H1701.53V263ZM1825.53 252V363H1847.53V252H1825.53ZM1836.53 352H1701.53V374H1836.53V352ZM1690.53 363V433.8H1712.53V363H1690.53ZM1690.53 433.8C1690.53 456.633 1694.78 475.721 1706.01 488.017L1722.26 473.183C1716.68 467.079 1712.53 454.967 1712.53 433.8H1690.53ZM1706.18 488.195C1712.31 494.62 1720.88 498.667 1730.61 501.157C1740.41 503.663 1752.2 504.8 1765.73 504.8V482.8C1753.27 482.8 1743.46 481.737 1736.06 479.843C1728.59 477.933 1724.36 475.38 1722.09 473.005L1706.18 488.195ZM1765.73 504.8C1782.17 504.8 1796.98 503.774 1810.09 501.66L1806.58 479.94C1794.89 481.826 1781.3 482.8 1765.73 482.8V504.8ZM1810.36 501.612C1823.51 499.147 1835.36 496.244 1845.89 492.877L1839.18 471.923C1829.7 474.956 1818.76 477.653 1806.31 479.988L1810.36 501.612ZM1831.53 482.4V592.8H1853.53V482.4H1831.53ZM1839.43 582.247C1826.51 586.046 1810.28 589.352 1790.61 592.106L1793.66 613.894C1813.99 611.048 1831.36 607.554 1845.64 603.353L1839.43 582.247ZM1790.36 592.144C1771.4 595.24 1751.39 596.8 1730.33 596.8V618.8C1752.48 618.8 1773.67 617.16 1793.91 613.856L1790.36 592.144ZM1730.33 596.8C1690.52 596.8 1658.38 590.931 1633.43 579.76L1624.44 599.84C1653.09 612.669 1688.55 618.8 1730.33 618.8V596.8ZM1633.55 579.817C1608.6 568.272 1590.44 551.957 1578.5 530.96L1559.37 541.84C1573.83 567.243 1595.67 586.528 1624.32 599.783L1633.55 579.817ZM1578.5 530.96C1566.41 509.719 1560.13 484.072 1560.13 453.6H1538.13C1538.13 487.128 1545.06 516.681 1559.37 541.84L1578.5 530.96ZM1560.13 453.6V363H1538.13V453.6H1560.13ZM1549.13 352H1481.33V374H1549.13V352ZM1887.39 135V124H1876.39V135H1887.39ZM2039.79 135H2050.79V124H2039.79V135ZM2039.79 597V608H2050.79V597H2039.79ZM1887.39 597H1876.39V608H1887.39V597ZM2244.99 261.6L2239.5 271.131L2239.56 271.166L2239.62 271.2L2244.99 261.6ZM2298.99 318L2289.19 322.984L2289.24 323.08L2289.29 323.176L2298.99 318ZM2318.19 597V608H2329.19V597H2318.19ZM2165.79 597H2154.79V608H2165.79V597ZM2149.59 379.8L2141.82 387.578L2141.89 387.652L2141.96 387.724L2149.59 379.8ZM2069.79 372.6L2075.03 382.272L2075.1 382.235L2075.17 382.198L2069.79 372.6ZM2047.59 396L2057.35 401.075L2057.39 400.997L2057.43 400.919L2047.59 396ZM2039.79 432.6L2034.82 442.412L2050.79 450.505V432.6H2039.79ZM1994.79 409.8L1983.91 408.18L1982.75 416.027L1989.82 419.612L1994.79 409.8ZM2027.19 316.2L2036.44 322.163L2036.46 322.13L2036.48 322.096L2027.19 316.2ZM1887.39 146H2039.79V124H1887.39V146ZM2028.79 135V597H2050.79V135H2028.79ZM2039.79 586H1887.39V608H2039.79V586ZM1898.39 597V135H1876.39V597H1898.39ZM2159.19 252.2C2191.31 252.2 2217.92 258.694 2239.5 271.131L2250.49 252.069C2224.87 237.306 2194.27 230.2 2159.19 230.2V252.2ZM2239.62 271.2C2261.3 283.322 2277.76 300.503 2289.19 322.984L2308.8 313.016C2295.42 286.697 2275.89 266.278 2250.36 252L2239.62 271.2ZM2289.29 323.176C2301.09 345.305 2307.19 371.661 2307.19 402.6H2329.19C2329.19 368.738 2322.5 338.695 2308.7 312.824L2289.29 323.176ZM2307.19 402.6V597H2329.19V402.6H2307.19ZM2318.19 586H2165.79V608H2318.19V586ZM2176.79 597V424.2H2154.79V597H2176.79ZM2176.79 424.2C2176.79 402.895 2170.74 384.892 2157.22 371.876L2141.96 387.724C2150.05 395.508 2154.79 407.105 2154.79 424.2H2176.79ZM2157.37 372.022C2144.33 358.985 2126.38 353.2 2105.19 353.2V375.2C2122.4 375.2 2134.05 379.815 2141.82 387.578L2157.37 372.022ZM2105.19 353.2C2090.06 353.2 2076.34 356.325 2064.42 363.002L2075.17 382.198C2083.24 377.675 2093.12 375.2 2105.19 375.2V353.2ZM2064.55 362.928C2052.84 369.274 2043.9 378.801 2037.76 391.081L2057.43 400.919C2061.69 392.399 2067.55 386.326 2075.03 382.272L2064.55 362.928ZM2037.83 390.925C2031.62 402.867 2028.79 416.91 2028.79 432.6H2050.79C2050.79 419.49 2053.16 409.133 2057.35 401.075L2037.83 390.925ZM2044.77 422.788L1999.77 399.988L1989.82 419.612L2034.82 442.412L2044.77 422.788ZM2005.67 411.42C2011.11 374.94 2021.49 345.328 2036.44 322.163L2017.95 310.237C2000.9 336.672 1989.68 369.46 1983.91 408.18L2005.67 411.42ZM2036.48 322.096C2051.63 298.234 2069.72 280.844 2090.65 269.463L2080.14 250.137C2055.46 263.556 2034.76 283.766 2017.91 310.304L2036.48 322.096ZM2090.65 269.463C2111.81 257.956 2134.6 252.2 2159.19 252.2V230.2C2130.99 230.2 2104.58 236.844 2080.14 250.137L2090.65 269.463ZM2352.83 252V241H2339.49L2342.04 254.097L2352.83 252ZM2505.23 252L2516.09 250.228L2514.58 241H2505.23V252ZM2529.23 399H2540.23V398.108L2540.09 397.228L2529.23 399ZM2529.23 597V608H2540.23V597H2529.23ZM2376.83 597H2365.83V608H2376.83V597ZM2376.83 375.6H2387.83V374.542L2387.63 373.503L2376.83 375.6ZM2725.43 261.6L2719.8 271.047L2719.86 271.084L2719.92 271.12L2725.43 261.6ZM2777.63 318L2767.76 322.854L2767.78 322.887L2767.8 322.919L2777.63 318ZM2795.63 597V608H2806.63V597H2795.63ZM2643.23 597H2632.23V608H2643.23V597ZM2628.83 379.8L2620.6 387.088L2620.67 387.176L2620.75 387.261L2628.83 379.8ZM2556.23 372.6L2561.83 382.07L2561.89 382.034L2561.95 381.996L2556.23 372.6ZM2535.83 396L2525.85 391.39L2525.81 391.48L2525.77 391.57L2535.83 396ZM2529.23 432.6L2524.26 442.412L2540.23 450.505V432.6H2529.23ZM2484.23 409.8L2473.35 408.18L2472.19 416.027L2479.26 419.612L2484.23 409.8ZM2515.43 316.2L2506.08 310.41L2506.07 310.431L2506.06 310.452L2515.43 316.2ZM2571.83 259.8L2566.43 250.217L2566.43 250.217L2571.83 259.8ZM2991.23 261.6L2985.6 271.047L2985.7 271.105L2985.79 271.161L2991.23 261.6ZM3044.03 318L3034.16 322.855L3034.18 322.887L3034.2 322.919L3044.03 318ZM3062.03 597V608H3073.03V597H3062.03ZM2909.63 597H2898.63V608H2909.63V597ZM2895.23 379.8L2887 387.088L2887.07 387.176L2887.15 387.261L2895.23 379.8ZM2822.63 372.6L2828.23 382.07L2828.29 382.034L2828.35 381.996L2822.63 372.6ZM2802.23 396L2792.25 391.39L2792.21 391.48L2792.17 391.57L2802.23 396ZM2795.63 432.6L2790.66 442.412L2806.63 450.505V432.6H2795.63ZM2750.63 409.8L2739.75 408.18L2738.59 416.027L2745.66 419.612L2750.63 409.8ZM2781.83 316.2L2791.21 321.948L2791.23 321.915L2791.25 321.881L2781.83 316.2ZM2352.83 263H2505.23V241H2352.83V263ZM2494.38 253.772L2518.38 400.772L2540.09 397.228L2516.09 250.228L2494.38 253.772ZM2518.23 399V597H2540.23V399H2518.23ZM2529.23 586H2376.83V608H2529.23V586ZM2387.83 597V375.6H2365.83V597H2387.83ZM2387.63 373.503L2363.63 249.903L2342.04 254.097L2366.04 377.697L2387.63 373.503ZM2642.63 252.2C2673.49 252.2 2699.04 258.666 2719.8 271.047L2731.07 252.153C2706.23 237.334 2676.58 230.2 2642.63 230.2V252.2ZM2719.92 271.12C2740.78 283.193 2756.69 300.34 2767.76 322.854L2787.51 313.145C2774.58 286.86 2755.69 266.407 2730.95 252.08L2719.92 271.12ZM2767.8 322.919C2778.89 345.107 2784.63 371.558 2784.63 402.6H2806.63C2806.63 368.842 2800.38 338.893 2787.47 313.081L2767.8 322.919ZM2784.63 402.6V597H2806.63V402.6H2784.63ZM2795.63 586H2643.23V608H2795.63V586ZM2654.23 597V424.2H2632.23V597H2654.23ZM2654.23 424.2C2654.23 403.235 2648.98 385.403 2636.92 372.339L2620.75 387.261C2627.89 394.997 2632.23 406.765 2632.23 424.2H2654.23ZM2637.07 372.512C2625.25 359.15 2608.48 353.2 2588.63 353.2V375.2C2603.99 375.2 2614.02 379.65 2620.6 387.088L2637.07 372.512ZM2588.63 353.2C2574.53 353.2 2561.69 356.404 2550.51 363.204L2561.95 381.996C2569.18 377.596 2577.94 375.2 2588.63 375.2V353.2ZM2550.64 363.13C2539.69 369.601 2531.47 379.216 2525.85 391.39L2545.82 400.61C2549.8 391.984 2555.18 385.999 2561.83 382.07L2550.64 363.13ZM2525.77 391.57C2520.59 403.335 2518.23 417.137 2518.23 432.6H2540.23C2540.23 419.263 2542.28 408.665 2545.9 400.43L2525.77 391.57ZM2534.21 422.788L2489.21 399.988L2479.26 419.612L2524.26 442.412L2534.21 422.788ZM2495.11 411.42C2500.56 374.855 2510.58 345.164 2524.81 321.948L2506.06 310.452C2489.89 336.836 2479.11 369.545 2473.35 408.18L2495.11 411.42ZM2524.79 321.99C2539.58 298.092 2557.11 280.725 2577.24 269.383L2566.43 250.217C2542.56 263.675 2522.49 283.908 2506.08 310.41L2524.79 321.99ZM2577.24 269.383C2597.59 257.91 2619.33 252.2 2642.63 252.2V230.2C2615.54 230.2 2590.08 236.89 2566.43 250.217L2577.24 269.383ZM2908.43 252.2C2939.29 252.2 2964.84 258.666 2985.6 271.047L2996.87 252.153C2972.03 237.334 2942.38 230.2 2908.43 230.2V252.2ZM2985.79 271.161C3007.04 283.25 3023.12 300.392 3034.16 322.855L3053.91 313.145C3040.95 286.808 3021.83 266.35 2996.67 252.039L2985.79 271.161ZM3034.2 322.919C3045.29 345.107 3051.03 371.558 3051.03 402.6H3073.03C3073.03 368.842 3066.78 338.893 3053.87 313.081L3034.2 322.919ZM3051.03 402.6V597H3073.03V402.6H3051.03ZM3062.03 586H2909.63V608H3062.03V586ZM2920.63 597V424.2H2898.63V597H2920.63ZM2920.63 424.2C2920.63 403.235 2915.38 385.403 2903.32 372.339L2887.15 387.261C2894.29 394.997 2898.63 406.765 2898.63 424.2H2920.63ZM2903.47 372.512C2891.65 359.15 2874.88 353.2 2855.03 353.2V375.2C2870.39 375.2 2880.42 379.65 2887 387.088L2903.47 372.512ZM2855.03 353.2C2840.93 353.2 2828.09 356.404 2816.91 363.204L2828.35 381.996C2835.58 377.596 2844.34 375.2 2855.03 375.2V353.2ZM2817.04 363.13C2806.09 369.601 2797.87 379.216 2792.25 391.39L2812.22 400.61C2816.2 391.984 2821.58 385.999 2828.23 382.07L2817.04 363.13ZM2792.17 391.57C2786.99 403.335 2784.63 417.137 2784.63 432.6H2806.63C2806.63 419.263 2808.68 408.665 2812.3 400.43L2792.17 391.57ZM2800.61 422.788L2755.61 399.988L2745.66 419.612L2790.66 442.412L2800.61 422.788ZM2761.51 411.42C2766.96 374.855 2776.98 345.164 2791.21 321.948L2772.46 310.452C2756.29 336.836 2745.51 369.545 2739.75 408.18L2761.51 411.42ZM2791.25 321.881C2805.64 298.036 2822.94 280.707 2843.04 269.383L2832.23 250.217C2808.32 263.693 2788.43 283.964 2772.42 310.519L2791.25 321.881ZM2843.04 269.383C2863.39 257.91 2885.13 252.2 2908.43 252.2V230.2C2881.34 230.2 2855.88 236.89 2832.23 250.217L2843.04 269.383ZM3829.91 445.2L3840.87 446.147L3841.9 434.2H3829.91V445.2ZM3795.71 530.4L3787.21 523.427L3787.21 523.427L3795.71 530.4ZM3717.11 587.4L3712.86 577.257L3712.83 577.267L3712.81 577.276L3717.11 587.4ZM3492.11 585L3487.48 594.977L3487.53 595L3487.58 595.022L3492.11 585ZM3413.51 520.2L3422.6 514.007L3422.6 514.007L3413.51 520.2ZM3413.51 329.4L3422.56 335.654L3422.58 335.624L3422.6 335.593L3413.51 329.4ZM3492.11 264.6L3496.74 274.577L3496.74 274.577L3492.11 264.6ZM3717.11 261.6L3712.81 271.724L3712.83 271.733L3712.86 271.743L3717.11 261.6ZM3795.71 318.6L3787.21 325.573L3787.23 325.608L3787.26 325.642L3795.71 318.6ZM3829.91 403.8V414.8H3841.89L3840.87 402.864L3829.91 403.8ZM3679.31 403.8L3668.55 406.053L3670.38 414.8H3679.31V403.8ZM3654.71 365.4L3648.35 374.371L3648.51 374.487L3648.68 374.597L3654.71 365.4ZM3571.31 360.6L3576.23 370.439L3576.3 370.403L3576.38 370.365L3571.31 360.6ZM3547.31 384.6L3557.08 389.663L3557.08 389.663L3547.31 384.6ZM3547.31 465L3537.55 470.063L3537.59 470.14L3537.63 470.215L3547.31 465ZM3571.31 489L3566.1 498.685L3566.32 498.803L3566.54 498.911L3571.31 489ZM3654.71 483L3661.27 491.834L3661.29 491.817L3661.31 491.8L3654.71 483ZM3679.31 445.2V434.2H3670.56L3668.59 442.727L3679.31 445.2ZM3818.95 444.253C3816.34 474.515 3805.75 500.798 3787.21 523.427L3804.22 537.373C3825.67 511.202 3837.89 480.685 3840.87 446.147L3818.95 444.253ZM3787.21 523.427C3768.47 546.288 3743.79 564.271 3712.86 577.257L3721.37 597.543C3755.23 583.329 3782.96 563.312 3804.22 537.373L3787.21 523.427ZM3712.81 577.276C3682.37 590.212 3647.67 596.8 3608.51 596.8V618.8C3650.15 618.8 3687.85 611.788 3721.42 597.524L3712.81 577.276ZM3608.51 596.8C3565.78 596.8 3528.57 589.421 3496.65 574.978L3487.58 595.022C3522.85 610.979 3563.25 618.8 3608.51 618.8V596.8ZM3496.74 575.023C3464.74 560.165 3440.17 539.792 3422.6 514.007L3404.42 526.393C3424.46 555.808 3452.28 578.635 3487.48 594.977L3496.74 575.023ZM3422.6 514.007C3405.15 488.377 3396.31 458.772 3396.31 424.8H3374.31C3374.31 462.828 3384.28 496.823 3404.42 526.393L3422.6 514.007ZM3396.31 424.8C3396.31 390.399 3405.16 360.831 3422.56 335.654L3404.46 323.146C3384.27 352.369 3374.31 386.401 3374.31 424.8H3396.31ZM3422.6 335.593C3440.17 309.808 3464.74 289.435 3496.74 274.577L3487.48 254.623C3452.28 270.965 3424.46 293.792 3404.42 323.207L3422.6 335.593ZM3496.74 274.577C3528.65 259.766 3565.82 252.2 3608.51 252.2V230.2C3563.21 230.2 3522.78 238.234 3487.48 254.623L3496.74 274.577ZM3608.51 252.2C3647.67 252.2 3682.37 258.788 3712.81 271.724L3721.42 251.476C3687.85 237.212 3650.15 230.2 3608.51 230.2V252.2ZM3712.86 271.743C3743.79 284.729 3768.47 302.712 3787.21 325.573L3804.22 311.627C3782.96 285.688 3755.23 265.671 3721.37 251.457L3712.86 271.743ZM3787.26 325.642C3805.74 347.816 3816.33 374.052 3818.95 404.736L3840.87 402.864C3837.89 367.948 3825.68 337.384 3804.16 311.558L3787.26 325.642ZM3829.91 392.8H3679.31V414.8H3829.91V392.8ZM3690.08 401.546C3685.98 381.954 3676.35 366.44 3660.75 356.203L3648.68 374.597C3658.68 381.16 3665.45 391.246 3668.55 406.053L3690.08 401.546ZM3661.08 356.429C3646.46 346.052 3628.71 341.2 3608.51 341.2V363.2C3625.12 363.2 3638.17 367.148 3648.35 374.371L3661.08 356.429ZM3608.51 341.2C3593.02 341.2 3578.83 344.309 3566.25 350.835L3576.38 370.365C3585.39 365.691 3596.01 363.2 3608.51 363.2V341.2ZM3566.39 350.761C3553.81 357.051 3544.16 366.774 3537.55 379.537L3557.08 389.663C3561.66 380.826 3568.01 374.549 3576.23 370.439L3566.39 350.761ZM3537.55 379.537C3530.92 392.315 3527.91 407.573 3527.91 424.8H3549.91C3549.91 410.027 3552.5 398.485 3557.08 389.663L3537.55 379.537ZM3527.91 424.8C3527.91 442.027 3530.92 457.285 3537.55 470.063L3557.08 459.937C3552.5 451.115 3549.91 439.573 3549.91 424.8H3527.91ZM3537.63 470.215C3544.25 482.51 3553.8 492.065 3566.1 498.685L3576.53 479.315C3568.02 474.735 3561.58 468.29 3557 459.785L3537.63 470.215ZM3566.54 498.911C3579.06 504.939 3593.14 507.8 3608.51 507.8V485.8C3595.89 485.8 3585.17 483.461 3576.08 479.089L3566.54 498.911ZM3608.51 507.8C3628.81 507.8 3646.63 502.695 3661.27 491.834L3648.16 474.166C3638 481.705 3625.02 485.8 3608.51 485.8V507.8ZM3661.31 491.8C3676.19 480.642 3685.85 465.8 3690.03 447.673L3668.59 442.727C3665.58 455.8 3658.84 466.158 3648.11 474.2L3661.31 491.8ZM3679.31 456.2H3829.91V434.2H3679.31V456.2Z" fill="white" mask="url(#path-1-inside-1_20_7)"/>
</g>
<g filter="url(#filter1_d_20_7)">
<path d="M3208 614C3178.58 614 3153.39 603.469 3132.43 582.406C3111.48 561.343 3101 536.022 3101 506.444C3101 476.867 3111.48 451.546 3132.43 430.483C3153.39 409.42 3178.58 398.889 3208 398.889C3218.25 398.889 3227.73 400.121 3236.42 402.586C3245.12 405.051 3253.48 408.748 3261.5 413.678V130H3422V237.556H3315V506.444C3315 536.022 3304.52 561.343 3283.57 582.406C3262.61 603.469 3237.42 614 3208 614Z" fill="#24CDE2"/>
<path d="M3259.14 417.512L3266 421.723V413.678V134.5H3417.5V233.056H3315H3310.5V237.556V506.444C3310.5 534.827 3300.5 559.008 3280.38 579.232C3260.26 599.455 3236.21 609.5 3208 609.5C3179.79 609.5 3155.74 599.455 3135.62 579.232C3115.5 559.008 3105.5 534.827 3105.5 506.444C3105.5 478.062 3115.5 453.881 3135.62 433.657C3155.74 413.434 3179.79 403.389 3208 403.389C3217.89 403.389 3226.95 404.578 3235.19 406.915C3243.47 409.263 3251.46 412.789 3259.14 417.512Z" stroke="white" stroke-width="9"/>
</g>
<defs>
<filter id="filter0_d_20_7" x="31" y="130" width="3803.91" height="581.8" filterUnits="userSpaceOnUse" color-interpolation-filters="sRGB">
<feFlood flood-opacity="0" result="BackgroundImageFix"/>
<feColorMatrix in="SourceAlpha" type="matrix" values="0 0 0 0 0 0 0 0 0 0 0 0 0 0 0 0 0 0 127 0" result="hardAlpha"/>
<feOffset/>
<feGaussianBlur stdDeviation="2.5"/>
<feComposite in2="hardAlpha" operator="out"/>
<feColorMatrix type="matrix" values="0 0 0 0 0 0 0 0 0 0 0 0 0 0 0 0 0 0 1 0"/>
<feBlend mode="normal" in2="BackgroundImageFix" result="effect1_dropShadow_20_7"/>
<feBlend mode="normal" in="SourceGraphic" in2="effect1_dropShadow_20_7" result="shape"/>
</filter>
<filter id="filter1_d_20_7" x="3096" y="125" width="331" height="494" filterUnits="userSpaceOnUse" color-interpolation-filters="sRGB">
<feFlood flood-opacity="0" result="BackgroundImageFix"/>
<feColorMatrix in="SourceAlpha" type="matrix" values="0 0 0 0 0 0 0 0 0 0 0 0 0 0 0 0 0 0 127 0" result="hardAlpha"/>
<feOffset/>
<feGaussianBlur stdDeviation="2.5"/>
<feComposite in2="hardAlpha" operator="out"/>
<feColorMatrix type="matrix" values="0 0 0 0 0 0 0 0 0 0 0 0 0 0 0 0 0 0 1 0"/>
<feBlend mode="normal" in2="BackgroundImageFix" result="effect1_dropShadow_20_7"/>
<feBlend mode="normal" in="SourceGraphic" in2="effect1_dropShadow_20_7" result="shape"/>
</filter>
<linearGradient id="paint0_linear_20_7" x1="1806.28" y1="880.5" x2="1674.95" y2="177.222" gradientUnits="userSpaceOnUse">
<stop stop-color="#24CDE2"/>
<stop offset="1" stop-color="#E470AB"/>
</linearGradient>
</defs>
</svg>
