<svg width="248" height="45" viewBox="0 0 248 45" fill="none" xmlns="http://www.w3.org/2000/svg">
<path d="M0.632 45V0.199997H10.36L26.68 26.76L19.704 26.696L36.216 0.199997H45.56V45H35V31.048C35 27.208 35.0853 23.752 35.256 20.68C35.4693 17.608 35.8107 14.5573 36.28 11.528L37.496 14.856L25.08 34.12H20.856L8.696 14.984L9.912 11.528C10.3813 14.3867 10.7013 17.3307 10.872 20.36C11.0853 23.3467 11.192 26.9093 11.192 31.048V45H0.632ZM49.2035 45L66.9315 0.199997H76.1475L93.7475 45H82.7395L74.2915 22.28C73.9502 21.384 73.6088 20.424 73.2675 19.4C72.9262 18.376 72.5848 17.3307 72.2435 16.264C71.9022 15.1547 71.5608 14.088 71.2195 13.064C70.9208 11.9973 70.6648 11.016 70.4515 10.12L72.3715 10.056C72.1155 11.1227 71.8168 12.168 71.4755 13.192C71.1768 14.216 70.8568 15.24 70.5155 16.264C70.2168 17.2453 69.8755 18.248 69.4915 19.272C69.1075 20.2533 68.7448 21.2773 68.4035 22.344L59.9555 45H49.2035ZM57.6515 36.424L61.0435 28.232H81.6515L84.9795 36.424H57.6515ZM97.417 45V0.199997H116.745C119.561 0.199997 122.057 0.839998 124.233 2.12C126.452 3.4 128.201 5.14933 129.481 7.368C130.804 9.58667 131.465 12.0827 131.465 14.856C131.465 17.7573 130.804 20.36 129.481 22.664C128.201 24.9253 126.452 26.7173 124.233 28.04C122.057 29.3627 119.561 30.024 116.745 30.024H108.297V45H97.417ZM108.105 20.488H115.209C116.148 20.488 117.001 20.2533 117.769 19.784C118.537 19.3147 119.156 18.6747 119.625 17.864C120.094 17.0533 120.329 16.1147 120.329 15.048C120.329 13.9387 120.094 13 119.625 12.232C119.156 11.464 118.537 10.8667 117.769 10.44C117.001 10.0133 116.148 9.8 115.209 9.8H108.105V20.488ZM137.872 45V0.199997H157.2C160.016 0.199997 162.512 0.839998 164.688 2.12C166.907 3.4 168.656 5.14933 169.936 7.368C171.259 9.58667 171.92 12.0827 171.92 14.856C171.92 17.7573 171.259 20.36 169.936 22.664C168.656 24.9253 166.907 26.7173 164.688 28.04C162.512 29.3627 160.016 30.024 157.2 30.024H148.752V45H137.872ZM148.56 20.488H155.664C156.603 20.488 157.456 20.2533 158.224 19.784C158.992 19.3147 159.611 18.6747 160.08 17.864C160.549 17.0533 160.784 16.1147 160.784 15.048C160.784 13.9387 160.549 13 160.08 12.232C159.611 11.464 158.992 10.8667 158.224 10.44C157.456 10.0133 156.603 9.8 155.664 9.8H148.56V20.488ZM178.327 45V0.199997H189.207V35.4H209.175V45H178.327ZM215.407 45V0.199997H246.639V9.48H225.967V35.72H247.279V45H215.407ZM220.527 26.632V17.8H243.759V26.632H220.527Z" fill="#07A0FF"/>
</svg>
